<?xml version="1.0" encoding="UTF-8"?>
<svg version="1.1" xmlns="http://www.w3.org/2000/svg" width="650" height="222">
<path d="M0 0 C3.7528376 2.11148665 6.9888741 4.77487915 10.3125 7.5 C11.70734619 8.59417236 11.70734619 8.59417236 13.13037109 9.71044922 C16.95396172 12.71158945 20.73327591 15.75301047 24.42578125 18.9140625 C25.76189453 20.00847656 25.76189453 20.00847656 27.125 21.125 C27.82882812 21.74632813 28.53265625 22.36765625 29.2578125 23.0078125 C39.30750941 26.64402762 56.91839586 18.37780322 66.95019531 15.58984375 C83.97047812 10.87744545 99.52344597 7.62441837 116 16 C117 17 117 17 117.296875 19.31640625 C116.9110391 22.80415968 115.87482981 23.66171671 113.25 25.9375 C100.68760153 35.99164896 86.26475249 38.81848034 70.9375 42.5625 C67.56295034 43.39083155 64.18975227 44.22352668 60.81947327 45.06907654 C58.7361232 45.59147664 56.65033686 46.10429909 54.56175232 46.60536194 C46.19420454 48.69861833 35.28793973 51.71206027 29 58 C29.78375 57.835 30.5675 57.67 31.375 57.5 C34.37631017 57.08602618 37.22792842 56.83759628 40.25 56.75 C41.10078125 56.72421875 41.9515625 56.6984375 42.828125 56.671875 C43.54484375 56.78015625 44.2615625 56.8884375 45 57 C47.13586678 60.20380017 47.23132175 61.01939967 47.125 64.6875 C47.10695313 65.49574219 47.08890625 66.30398437 47.0703125 67.13671875 C47.04710937 67.75160156 47.02390625 68.36648437 47 69 C37.18616375 73.17996729 26.6147734 73.91027853 16 73 C15.34 72.34 14.68 71.68 14 71 C7.59080275 70.15184156 4.17645247 72.22269419 -0.9375 75.625 C-2.52311407 76.63536803 -4.11044889 77.64303913 -5.69921875 78.6484375 C-6.54790527 79.18952148 -7.3965918 79.73060547 -8.27099609 80.28808594 C-45.51516223 103.65148663 -45.51516223 103.65148663 -54 103 C-50.2666227 99.01773088 -46.35024606 96.01242966 -41.8125 93 C-40.39466226 92.04079123 -38.97804469 91.079777 -37.5625 90.1171875 C-36.82257813 89.61413086 -36.08265625 89.11107422 -35.3203125 88.59277344 C-31.28163754 85.82043385 -27.29281204 82.98027257 -23.3125 80.125 C-22.55880127 79.59003906 -21.80510254 79.05507812 -21.02856445 78.50390625 C-16.99774068 75.60247667 -13.41633988 72.63295563 -10 69 C-8.33333333 67.33333333 -6.66666667 65.66666667 -5 64 C-10.16451077 64.44521645 -14.96078028 65.2207972 -19.98828125 66.484375 C-26.11303815 67.82361572 -31.99428008 68.32247633 -38.25390625 68.52734375 C-66.50045426 69.09906203 -66.50045426 69.09906203 -91.17431641 81.671875 C-93.99415717 83.72321677 -96.692476 84.8934237 -100 86 C-100.99 85.67 -101.98 85.34 -103 85 C-100.26319111 82.21125925 -97.4845627 79.50378536 -94.58984375 76.87890625 C-93.99236328 76.33556641 -93.39488281 75.79222656 -92.77929688 75.23242188 C-91.55122543 74.11895306 -90.31943967 73.0095672 -89.08398438 71.90429688 C-85.39635761 68.53559999 -82.58730702 65.27776697 -80 61 C-80.54011719 60.79632813 -81.08023437 60.59265625 -81.63671875 60.3828125 C-84.9537006 58.44196692 -87.27727402 55.7105552 -89.8125 52.875 C-90.34584961 52.28750977 -90.87919922 51.70001953 -91.42871094 51.09472656 C-94.77030353 47.40373949 -98.08183964 43.6858898 -101.33203125 39.9140625 C-102.60309144 38.45546884 -103.89629754 37.01614231 -105.19921875 35.5859375 C-105.93785156 34.77382812 -106.67648437 33.96171875 -107.4375 33.125 C-108.45650391 32.01511719 -108.45650391 32.01511719 -109.49609375 30.8828125 C-111 29 -111 29 -111 27 C-105.70827966 24.80587206 -101.56179241 24.60815157 -96.14343262 26.72549438 C-94.15487869 27.65939602 -92.20983668 28.65281127 -90.265625 29.67578125 C-89.54695251 30.04221237 -88.82828003 30.40864349 -88.08782959 30.78617859 C-85.80351574 31.95209498 -83.52632924 33.13108029 -81.25 34.3125 C-63.47290623 43.50012572 -52.92383818 48.83757584 -33.05859375 43.05859375 C-32.05031021 42.77146011 -31.04202667 42.48432648 -30.00318909 42.18849182 C-26.81264989 41.27824234 -23.62508169 40.35804642 -20.4375 39.4375 C-18.26255907 38.81509342 -16.08743054 38.19334198 -13.91210938 37.57226562 C-8.60587998 36.05574652 -3.30204764 34.5310713 2 33 C2 29.35597126 0.94190253 27.41147762 -0.625 24.125 C-1.16640625 22.97515625 -1.7078125 21.8253125 -2.265625 20.640625 C-2.84309034 19.42676929 -3.42122288 18.21323079 -4 17 C-5.13159048 14.62796358 -6.25541556 12.25278409 -7.375 9.875 C-7.87773437 8.82054688 -8.38046875 7.76609375 -8.8984375 6.6796875 C-10 4 -10 4 -10 1 C-6.64333157 -0.67833422 -3.5945915 -0.76350585 0 0 Z " fill="#010101" transform="translate(494,60)"/>
<path d="M0 0 C0.80566406 0.04833984 1.61132812 0.09667969 2.44140625 0.14648438 C3.28316406 0.20255859 4.12492188 0.25863281 4.9921875 0.31640625 C6.26642578 0.3947168 6.26642578 0.3947168 7.56640625 0.47460938 C9.66697874 0.60442003 11.76712941 0.74102365 13.8671875 0.87890625 C14.24937517 2.53505282 14.58113852 4.20347649 14.8671875 5.87890625 C13.8671875 6.87890625 13.8671875 6.87890625 11.390625 7.01171875 C5.77769076 6.99779087 0.39432024 6.88383947 -5.1328125 5.87890625 C-5.4628125 4.22890625 -5.7928125 2.57890625 -6.1328125 0.87890625 C-3.77622853 -0.29938574 -2.60708014 -0.16523747 0 0 Z " fill="#ffffff" transform="translate(250.1328125,148.12109375)"/>
<path d="M0 0 C-0.33 1.65 -0.66 3.3 -1 5 C-7.32448699 6.06965872 -13.64416673 7.13329546 -20 8 C-20.33 6.68 -20.66 5.36 -21 4 C-15.18783634 0.12522422 -6.77458266 -3.38729133 0 0 Z " fill="#020202" transform="translate(156,23)"/>
<path d="M0 0 C6.54883739 0.13428215 12.79951248 0.88619744 19 3 C19.5625 4.9375 19.5625 4.9375 20 7 C19 8 19 8 15.625 8.25 C10.18232188 8.21041689 5.16314404 6.59450036 0 5 C-0.5625 3.0625 -0.5625 3.0625 -1 1 C-0.67 0.67 -0.34 0.34 0 0 Z " fill="#020202" transform="translate(214,144)"/>
<path d="M0 0 C-0.33 1.65 -0.66 3.3 -1 5 C-7.06815522 6.22899346 -12.79895188 7.27560214 -19 7 C-19.66 5.68 -20.32 4.36 -21 3 C-18.24094775 0.24094775 -16.02198779 0.34651767 -12.1875 -0.1875 C-10.96417969 -0.36667969 -9.74085937 -0.54585937 -8.48046875 -0.73046875 C-5.33203735 -0.97428667 -3.0251646 -0.81247278 0 0 Z " fill="#090909" transform="translate(102,200)"/>
<path d="M0 0 C0.80566406 0.00322266 1.61132812 0.00644531 2.44140625 0.00976562 C3.70404297 0.02233398 3.70404297 0.02233398 4.9921875 0.03515625 C5.84167969 0.03966797 6.69117188 0.04417969 7.56640625 0.04882812 C9.66669659 0.06062751 11.7669508 0.07856319 13.8671875 0.09765625 C14.1971875 1.41765625 14.5271875 2.73765625 14.8671875 4.09765625 C10.58834144 6.20799975 6.72854608 6.33894364 2.0546875 6.22265625 C1.01538086 6.20912109 1.01538086 6.20912109 -0.04492188 6.1953125 C-1.74103645 6.17191782 -3.43697121 6.13605266 -5.1328125 6.09765625 C-5.4628125 4.44765625 -5.7928125 2.79765625 -6.1328125 1.09765625 C-3.8362755 -0.05061225 -2.54968083 -0.0179555 0 0 Z " fill="#050505" transform="translate(281.1328125,148.90234375)"/>
<path d="M0 0 C0.33 1.32 0.66 2.64 1 4 C-5.64558134 6.60900601 -11.88515313 7.6143354 -19 8 C-19.33 6.35 -19.66 4.7 -20 3 C-6.3667426 -0.44419134 -6.3667426 -0.44419134 0 0 Z " fill="#ffffff" transform="translate(357,141)"/>
<path d="M0 0 C4.07042851 1.43356333 7.26260188 3.40678002 10.75 5.9375 C11.71421875 6.62714844 12.6784375 7.31679687 13.671875 8.02734375 C16 10 16 10 17 13 C15.4375 14.25 15.4375 14.25 13 15 C7.13640942 12.40648878 2.67575937 8.32355931 -2 4 C-1.34 2.68 -0.68 1.36 0 0 Z " fill="#ffffff" transform="translate(160,116)"/>
<path d="M0 0 C1.55214428 0.00399351 3.1042894 0.01875918 4.65625 0.04296875 C5.83380859 0.04393555 5.83380859 0.04393555 7.03515625 0.04492188 C12.87531304 0.09000027 12.87531304 0.09000027 15.15625 1.23046875 C14.82625 2.88046875 14.49625 4.53046875 14.15625 6.23046875 C8.21625 6.23046875 2.27625 6.23046875 -3.84375 6.23046875 C-4.50375 4.91046875 -5.16375 3.59046875 -5.84375 2.23046875 C-3.84375 0.23046875 -3.84375 0.23046875 0 0 Z " fill="#060606" transform="translate(56.84375,201.76953125)"/>
<path d="M0 0 C-0.21484375 1.83203125 -0.21484375 1.83203125 -1 4 C-6.47043762 7.95620343 -12.34903748 9.63050208 -19 10 C-19.33 8.68 -19.66 7.36 -20 6 C-18.43880578 5.20576139 -16.87598036 4.41472877 -15.3125 3.625 C-14.00732422 2.96371094 -14.00732422 2.96371094 -12.67578125 2.2890625 C-4.97418478 -1.42119565 -4.97418478 -1.42119565 0 0 Z " fill="#010101" transform="translate(159,182)"/>
<path d="M0 0 C0.33 1.32 0.66 2.64 1 4 C-4.79068029 7.86045353 -12.2384375 7.14086589 -19 7 C-19.33 5.68 -19.66 4.36 -20 3 C-14.20931971 -0.86045353 -6.7615625 -0.14086589 0 0 Z " fill="#ffffff" transform="translate(326,146)"/>
<path d="M0 0 C4.59509218 0.2827749 7.57083936 1.63821867 11.3125 4.25 C12.17488281 4.83265625 13.03726563 5.4153125 13.92578125 6.015625 C16.34408449 8.32918064 16.7002913 9.72016893 17 13 C15.3125 13.70703125 15.3125 13.70703125 13 14 C10.5625 12.63671875 10.5625 12.63671875 8 10.6875 C4.5371491 8.05371449 4.5371491 8.05371449 0.75 5.95703125 C-1 5 -1 5 -2 2 C-1.34 1.34 -0.68 0.68 0 0 Z " fill="#010101" transform="translate(167,26)"/>
<path d="M0 0 C0 1.32 0 2.64 0 4 C-6.83911885 6.55327104 -12.66186666 8.5644718 -20 8 C-19.67 6.35 -19.34 4.7 -19 3 C-16.77518771 2.29853686 -14.54492632 1.61434046 -12.3125 0.9375 C-11.07113281 0.55464844 -9.82976562 0.17179688 -8.55078125 -0.22265625 C-5.1468214 -0.96785758 -3.28440924 -0.99851065 0 0 Z " fill="#ffffff" transform="translate(131,193)"/>
<path d="M0 0 C6.46140988 0.43076066 12.53217348 2.49037433 18 6 C18.8203125 8.16796875 18.8203125 8.16796875 19 10 C14.55102737 11.3461836 12.08232821 10.58477471 7.875 8.75 C6.84117187 8.31171875 5.80734375 7.8734375 4.7421875 7.421875 C2.28994455 6.15034162 0.77297596 5.07866147 -1 3 C-0.67 2.01 -0.34 1.02 0 0 Z " fill="#010101" transform="translate(185,134)"/>
<path d="M0 0 C-0.28515625 1.8984375 -0.28515625 1.8984375 -1 4 C-6.77331211 6.72920209 -12.73449808 7.90867282 -19 9 C-19.66 7.68 -20.32 6.36 -21 5 C-17.38836573 2.63215138 -14.12470027 1.28753635 -9.9375 0.25 C-8.40416016 -0.14445313 -8.40416016 -0.14445313 -6.83984375 -0.546875 C-4.10680414 -0.98295835 -2.57374074 -0.91346194 0 0 Z " fill="#ffffff" transform="translate(388,134)"/>
<path d="M0 0 C3.55020163 0.17198209 4.86495212 0.87384242 7.4921875 3.328125 C8.27851563 4.29234375 9.06484375 5.2565625 9.875 6.25 C10.67679688 7.20390625 11.47859375 8.1578125 12.3046875 9.140625 C14 12 14 12 13.7578125 14.859375 C13.50773438 15.56578125 13.25765625 16.2721875 13 17 C8.82386964 16.50306916 7.04206379 14.29989276 4.3125 11.25 C3.52488281 10.38890625 2.73726562 9.5278125 1.92578125 8.640625 C-0.03587166 5.9508129 -0.75245609 4.29290968 -1 1 C-0.67 0.67 -0.34 0.34 0 0 Z " fill="#ffffff" transform="translate(138,94)"/>
<path d="M0 0 C-0.33 1.32 -0.66 2.64 -1 4 C-3.06172613 4.33808686 -5.1244203 4.67027361 -7.1875 5 C-8.91033203 5.2784375 -8.91033203 5.2784375 -10.66796875 5.5625 C-13.50415393 5.93489477 -16.14719564 6.08596021 -19 6 C-19.33 4.68 -19.66 3.36 -20 2 C-13.97658658 -1.9582431 -6.41500195 -4.27666796 0 0 Z " fill="#010101" transform="translate(235,12)"/>
<path d="M0 0 C0.99 0.66 1.98 1.32 3 2 C2.27246734 5.80718548 1.38723428 9.55485569 0.4375 13.3125 C0.16808594 14.38113281 -0.10132812 15.44976562 -0.37890625 16.55078125 C-0.68634766 17.76314453 -0.68634766 17.76314453 -1 19 C-2.65614657 19.38218767 -4.32457024 19.71395102 -6 20 C-7 19 -7 19 -7.01953125 16.99609375 C-6.53579374 11.01782827 -5.45998978 6.00066448 -2 1 C-1.34 0.67 -0.68 0.34 0 0 Z " fill="#ffffff" transform="translate(127,36)"/>
<path d="M0 0 C2.328125 0.140625 2.328125 0.140625 5 1 C6.546875 3.546875 6.546875 3.546875 7.75 6.75 C8.15734375 7.79671875 8.5646875 8.8434375 8.984375 9.921875 C9.87418233 12.61867566 10.5237744 15.20476275 11 18 C9.35 18.33 7.7 18.66 6 19 C5.01330241 17.10807525 4.0359398 15.21128022 3.0625 13.3125 C2.51722656 12.25675781 1.97195312 11.20101562 1.41015625 10.11328125 C0.14337401 7.31653486 -0.66465298 5.03941506 -1 2 C-0.67 1.34 -0.34 0.68 0 0 Z " fill="#010101" transform="translate(123,67)"/>
<path d="M0 0 C-0.140625 1.765625 -0.140625 1.765625 -1 4 C-3.546875 5.921875 -3.546875 5.921875 -6.75 7.75 C-8.32007813 8.67039063 -8.32007813 8.67039063 -9.921875 9.609375 C-12.96253543 10.98307438 -14.72239968 11.31562077 -18 11 C-18 9.68 -18 8.36 -18 7 C-16.171875 5.3671875 -16.171875 5.3671875 -13.75 3.875 C-12.96109375 3.37742188 -12.1721875 2.87984375 -11.359375 2.3671875 C-4.91716738 -1.36587983 -4.91716738 -1.36587983 0 0 Z " fill="#080808" transform="translate(185,168)"/>
<path d="M0 0 C5.16102792 2.10471421 7.42552504 6.24160511 10 11 C10.875 14.5625 10.875 14.5625 11 17 C9.68 17.33 8.36 17.66 7 18 C3.4447843 12.77383293 0.06021459 7.53192638 -3 2 C-2.01 1.34 -1.02 0.68 0 0 Z " fill="#010101" transform="translate(245,17)"/>
<path d="M0 0 C2.0625 0.4375 2.0625 0.4375 4 1 C3.49159115 5.82630375 2.13041456 8.8601092 -0.5625 12.875 C-1.52349609 14.32519531 -1.52349609 14.32519531 -2.50390625 15.8046875 C-2.99761719 16.52914062 -3.49132812 17.25359375 -4 18 C-5.65 17.67 -7.3 17.34 -9 17 C-8.43310319 12.6852854 -6.88294703 9.86348525 -4.5 6.25 C-3.55640625 4.80367188 -3.55640625 4.80367188 -2.59375 3.328125 C-1 1 -1 1 0 0 Z " fill="#030303" transform="translate(242,102)"/>
<path d="M0 0 C0.8971875 0.309375 0.8971875 0.309375 1.8125 0.625 C1.22213027 3.87558998 0.2162176 5.63307665 -2 8.0625 C-2.53496094 8.660625 -3.06992188 9.25875 -3.62109375 9.875 C-4.13800781 10.4525 -4.65492188 11.03 -5.1875 11.625 C-6.52942868 13.28475389 -7.86659475 14.94846641 -9.1875 16.625 C-10.5075 16.295 -11.8275 15.965 -13.1875 15.625 C-12.64736777 11.50101744 -11.40841818 9.16322955 -8.8125 5.9375 C-8.20664063 5.17050781 -7.60078125 4.40351563 -6.9765625 3.61328125 C-3.22747471 -0.55328138 -3.22747471 -0.55328138 0 0 Z " fill="#030303" transform="translate(206.1875,21.375)"/>
<path d="M0 0 C0.53238281 0.25007812 1.06476563 0.50015625 1.61328125 0.7578125 C1.06582498 4.52364804 -0.37803642 5.98502536 -3.26171875 8.3828125 C-3.96039063 8.97320312 -4.6590625 9.56359375 -5.37890625 10.171875 C-8.96645169 13.00561712 -10.83383589 14.00391428 -15.38671875 13.7578125 C-15.15622965 10.05681617 -14.52396382 8.89028203 -11.8046875 6.265625 C-10.73853244 5.45709105 -9.66122179 4.66309331 -8.57421875 3.8828125 C-8.03990234 3.46773437 -7.50558594 3.05265625 -6.95507812 2.625 C-2.98744206 -0.30314469 -2.98744206 -0.30314469 0 0 Z " fill="#060606" transform="translate(207.38671875,149.2421875)"/>
<path d="M0 0 C3 1 3 1 4 3 C4.37483219 8.41301783 3.90773927 13.6670318 3 19 C1.35 19.33 -0.3 19.66 -2 20 C-3.25882323 16.23299514 -2.96221633 12.80303344 -2.6875 8.875 C-2.60886719 7.63492188 -2.53023437 6.39484375 -2.44921875 5.1171875 C-2 2 -2 2 0 0 Z " fill="#ffffff" transform="translate(256,44)"/>
<path d="M0 0 C1.32 0.66 2.64 1.32 4 2 C2.50967643 7.29892826 -0.93753734 11.40013661 -5 15 C-8.4375 16 -8.4375 16 -11 16 C-11 10.89586543 -8.85748137 9.19822411 -5.5 5.75 C-4.97535156 5.19570312 -4.45070312 4.64140625 -3.91015625 4.0703125 C-2.61558538 2.70512867 -1.30892741 1.35142505 0 0 Z " fill="#ffffff" transform="translate(226,127)"/>
<path d="M0 0 C0.99 0.33 1.98 0.66 3 1 C2.56699236 7.81987029 1.09212176 12.91643021 -2 19 C-3.32 19 -4.64 19 -6 19 C-5.42656355 12.80688638 -4.35902388 6.79033135 -2 1 C-1.34 0.67 -0.68 0.34 0 0 Z " fill="#020202" transform="translate(253,74)"/>
<path d="M0 0 C9.47347007 3.53248036 16.68474918 9.665895 24.43359375 15.984375 C25.11550781 16.52578125 25.79742188 17.0671875 26.5 17.625 C27.35078125 18.32496094 27.35078125 18.32496094 28.21875 19.0390625 C30.55844318 20.3012654 32.38395448 20.17022214 35 20 C35 20.66 35 21.32 35 22 C30.95148423 23.20411091 29.42165805 23.21932041 25.60546875 21.234375 C24.45338853 20.42409178 23.31413886 19.59530031 22.1875 18.75 C21.60291016 18.34136719 21.01832031 17.93273437 20.41601562 17.51171875 C17.55857905 15.45224535 16.13756511 14.41269533 15 11 C13.35353394 10.2848974 11.68222039 9.6263839 10 9 C8.19686814 7.88390086 6.42537114 6.71522249 4.6875 5.5 C3.80449219 4.8915625 2.92148437 4.283125 2.01171875 3.65625 C1.34785156 3.1096875 0.68398438 2.563125 0 2 C0 1.34 0 0.68 0 0 Z " fill="#0A0A0A" transform="translate(497,65)"/>
<path d="M0 0 C0.66 0.33 1.32 0.66 2 1 C0.68 2.32 -0.64 3.64 -2 5 C-1.67 5.66 -1.34 6.32 -1 7 C-3.14144462 9.47089763 -4.58866766 10.86387139 -7.7265625 11.90234375 C-12.55636501 13.52188373 -16.75811783 16.12248949 -21.171875 18.63671875 C-22.10515625 19.08660156 -23.0384375 19.53648437 -24 20 C-24.66 19.67 -25.32 19.34 -26 19 C-22.97980897 16.7699621 -19.95872992 14.54113018 -16.9375 12.3125 C-16.08994141 11.68666016 -15.24238281 11.06082031 -14.36914062 10.41601562 C-9.60687809 6.90407685 -4.82560667 3.42441287 0 0 Z " fill="#090909" transform="translate(473,140)"/>
<path d="M0 0 C0.22162329 1.62324086 0.42689803 3.248721 0.625 4.875 C0.74101562 5.77992187 0.85703125 6.68484375 0.9765625 7.6171875 C0.98429688 8.40351562 0.99203125 9.18984375 1 10 C0.34 10.66 -0.32 11.32 -1 12 C-3.125 11.625 -3.125 11.625 -5 11 C-6.19287411 7.12315913 -7 4.08378077 -7 0 C-4.3333581 -1.33332095 -2.83319697 -0.67102033 0 0 Z " fill="#060606" transform="translate(194,48)"/>
<path d="M0 0 C5.39449293 -0.27429625 8.51925805 -0.36055646 13 3 C12.67 3.99 12.34 4.98 12 6 C10.39620659 6.05416188 8.79188594 6.09286638 7.1875 6.125 C6.29417969 6.14820313 5.40085937 6.17140625 4.48046875 6.1953125 C2 6 2 6 -1 4 C-0.67 2.68 -0.34 1.36 0 0 Z " fill="#0C0C0C" transform="translate(30,200)"/>
<path d="M0 0 C1.11375 0.3403125 1.11375 0.3403125 2.25 0.6875 C2.05859375 2.48046875 2.05859375 2.48046875 1.25 4.6875 C-0.96484375 6.42578125 -0.96484375 6.42578125 -3.6875 8 C-4.58339844 8.53238281 -5.47929687 9.06476563 -6.40234375 9.61328125 C-7.56443359 10.14501953 -7.56443359 10.14501953 -8.75 10.6875 C-9.41 10.3575 -10.07 10.0275 -10.75 9.6875 C-8.44 8.0375 -6.13 6.3875 -3.75 4.6875 C-4.74 4.0275 -5.73 3.3675 -6.75 2.6875 C-4.29511132 0.41445492 -3.41240272 -0.38777304 0 0 Z " fill="#010101" transform="translate(182.75,167.3125)"/>
<path d="M0 0 C0 0.66 0 1.32 0 2 C-0.89138672 2.07347656 -0.89138672 2.07347656 -1.80078125 2.1484375 C-8.28345975 2.73318922 -14.61404401 3.74951812 -21 5 C-20.42578125 3.08203125 -20.42578125 3.08203125 -19 1 C-15.91796875 0.13671875 -15.91796875 0.13671875 -12.1875 -0.3125 C-10.96417969 -0.47363281 -9.74085937 -0.63476562 -8.48046875 -0.80078125 C-5.36473878 -0.9791227 -2.99546267 -0.7930844 0 0 Z " fill="#ffffff" transform="translate(102,200)"/>
<path d="M0 0 C1.75570312 0.30550781 1.75570312 0.30550781 3.546875 0.6171875 C4.88492188 0.86855469 4.88492188 0.86855469 6.25 1.125 C6.25 1.455 6.25 1.785 6.25 2.125 C4.35507994 2.46348652 2.45901534 2.79556911 0.5625 3.125 C-0.49324219 3.310625 -1.54898438 3.49625 -2.63671875 3.6875 C-5.39904062 4.07568074 -7.96742043 4.20759976 -10.75 4.125 C-10.75 3.135 -10.75 2.145 -10.75 1.125 C-7.00904806 -1.37514115 -4.30790579 -0.77542304 0 0 Z " fill="#0F0F0F" transform="translate(226.75,11.875)"/>
<path d="M0 0 C-0.33 0.99 -0.66 1.98 -1 3 C-3.58203125 3.94921875 -3.58203125 3.94921875 -6.8125 4.6875 C-8.39998047 5.06455078 -8.39998047 5.06455078 -10.01953125 5.44921875 C-13 6 -13 6 -17 6 C-17 5.34 -17 4.68 -17 4 C-14.91891315 3.32635339 -12.8350329 2.66133202 -10.75 2 C-9.58984375 1.62875 -8.4296875 1.2575 -7.234375 0.875 C-4 0 -4 0 0 0 Z " fill="#0E0E0E" transform="translate(129,194)"/>
<path d="M0 0 C5.58196207 0.01791962 9.44159779 2.35761792 14 5.375 C11 6.375 11 6.375 9.0625 5.59765625 C8.381875 5.21480469 7.70125 4.83195312 7 4.4375 C4.26120603 2.90730261 3.22224436 2.375 0 2.375 C-0.33 3.695 -0.66 5.015 -1 6.375 C-2.32 4.725 -3.64 3.075 -5 1.375 C-3.47912153 -0.14587847 -2.11960515 0.09567662 0 0 Z " fill="#0C0C0C" transform="translate(390,86.625)"/>
<path d="M0 0 C-0.33 0.66 -0.66 1.32 -1 2 C-2.99609375 2.6328125 -2.99609375 2.6328125 -5.4375 3.125 C-6.64212891 3.37636719 -6.64212891 3.37636719 -7.87109375 3.6328125 C-11.22000104 4.2104222 -14.60530294 4 -18 4 C-17 2 -17 2 -15.21484375 1.3671875 C-10.0204739 0.24456211 -5.31341973 -0.19321526 0 0 Z " fill="#0F0F0F" transform="translate(356,143)"/>
<path d="M0 0 C0 0.66 0 1.32 0 2 C-1.89248819 2.67610423 -3.7891602 3.34050439 -5.6875 4 C-7.27111328 4.556875 -7.27111328 4.556875 -8.88671875 5.125 C-11.78362056 5.9391857 -14.01700623 6.17709796 -17 6 C-17 5.34 -17 4.68 -17 4 C-14.73050898 3.32844651 -12.4596039 2.6626037 -10.1875 2 C-8.92292969 1.62875 -7.65835937 1.2575 -6.35546875 0.875 C-3 0 -3 0 0 0 Z " fill="#0E0E0E" transform="translate(386,135)"/>
<path d="M0 0 C0 0.33 0 0.66 0 1 C-11.52164009 3.11161731 -11.52164009 3.11161731 -17 4 C-16.67 2.68 -16.34 1.36 -16 0 C-10.49983036 -1.30267176 -5.52967941 -0.71033431 0 0 Z " fill="#111111" transform="translate(154,25)"/>
<path d="M0 0 C0.66 0 1.32 0 2 0 C3.4783226 2.95664519 3.06032783 5.74229737 3 9 C-2.71735105 11.45029331 -6.79029227 12.33266291 -13 12 C-13 11.67 -13 11.34 -13 11 C-8.71 10.01 -4.42 9.02 0 8 C0 5.36 0 2.72 0 0 Z " fill="#0E0E0E" transform="translate(537,119)"/>
<path d="M0 0 C1.98 0.495 1.98 0.495 4 1 C4.33 3.64 4.66 6.28 5 9 C4.34 9 3.68 9 3 9 C2.67 9.66 2.34 10.32 2 11 C1.47007308 9.54494642 0.9513211 8.08581873 0.4375 6.625 C0.14746094 5.81289062 -0.14257812 5.00078125 -0.44140625 4.1640625 C-1 2 -1 2 0 0 Z " fill="#090909" transform="translate(123,67)"/>
<path d="M0 0 C-0.33 0.99 -0.66 1.98 -1 3 C-3.87109375 4.38671875 -3.87109375 4.38671875 -7.4375 5.6875 C-8.61183594 6.12449219 -9.78617188 6.56148437 -10.99609375 7.01171875 C-14 8 -14 8 -16 8 C-15 5 -15 5 -12.3828125 3.61328125 C-11.30773437 3.18402344 -10.23265625 2.75476563 -9.125 2.3125 C-8.05507812 1.87550781 -6.98515625 1.43851563 -5.8828125 0.98828125 C-3 0 -3 0 0 0 Z " fill="#0F0F0F" transform="translate(157,183)"/>
<path d="M0 0 C1.79408332 0.6180287 3.58520478 1.24466081 5.375 1.875 C6.87160156 2.39707031 6.87160156 2.39707031 8.3984375 2.9296875 C11 4 11 4 13 6 C12.625 8.125 12.625 8.125 12 10 C10.68 10 9.36 10 8 10 C8 9.34 8 8.68 8 8 C8.66 7.67 9.32 7.34 10 7 C6.7 5.35 3.4 3.7 0 2 C0 1.34 0 0.68 0 0 Z " fill="#ffffff" transform="translate(191,135)"/>
<path d="M0 0 C4.11050664 1.45076705 7.53714127 3.34245725 11 6 C11 6.99 11 7.98 11 9 C7 7 3 5 -1 3 C-0.67 2.01 -0.34 1.02 0 0 Z " fill="#0E0E0E" transform="translate(168,27)"/>
<path d="M0 0 C5.39449293 -0.27429625 8.51925805 -0.36055646 13 3 C12.67 3.99 12.34 4.98 12 6 C10.68 5.67 9.36 5.34 8 5 C8.66 4.67 9.32 4.34 10 4 C7.24921116 3.08307039 5.64051087 2.89113917 2.8125 2.9375 C1.554375 2.958125 0.29625 2.97875 -1 3 C-0.67 2.01 -0.34 1.02 0 0 Z " fill="#010101" transform="translate(30,200)"/>
<path d="M0 0 C0 0.66 0 1.32 0 2 C-3.83724172 2.90413673 -7.37502274 3.10576898 -11.3125 3.0625 C-12.38113281 3.05347656 -13.44976562 3.04445312 -14.55078125 3.03515625 C-15.35902344 3.02355469 -16.16726563 3.01195312 -17 3 C-16.67 2.34 -16.34 1.68 -16 1 C-10.80342022 -0.18205463 -5.30441982 -0.11286 0 0 Z " fill="#0F0F0F" transform="translate(325,148)"/>
<path d="M0 0 C1.98 0 3.96 0 6 0 C6.33 0.66 6.66 1.32 7 2 C5.02 2 3.04 2 1 2 C1 2.66 1 3.32 1 4 C2.299375 4.12375 3.59875 4.2475 4.9375 4.375 C7.15234375 4.5859375 7.15234375 4.5859375 9 5 C9.33 5.66 9.66 6.32 10 7 C8.741875 6.87625 7.48375 6.7525 6.1875 6.625 C5.12595703 6.52058594 5.12595703 6.52058594 4.04296875 6.4140625 C2 6 2 6 -1 4 C-0.67 2.68 -0.34 1.36 0 0 Z " fill="#ffffff" transform="translate(214,144)"/>
<path d="M0 0 C0.66 0.33 1.32 0.66 2 1 C0.68884949 4.93345152 -0.84212778 5.32374076 -4.4375 7.25 C-5.92056641 8.06210938 -5.92056641 8.06210938 -7.43359375 8.890625 C-8.28050781 9.25671875 -9.12742187 9.6228125 -10 10 C-10.66 9.67 -11.32 9.34 -12 9 C-8.04 6.03 -4.08 3.06 0 0 Z " fill="#101010" transform="translate(459,150)"/>
<path d="M0 0 C3.96 1.98 7.92 3.96 12 6 C7.40410325 7.14897419 6.73828148 6.7140729 2.75 4.5625 C1.85796875 4.08941406 0.9659375 3.61632812 0.046875 3.12890625 C-0.62859375 2.75636719 -1.3040625 2.38382813 -2 2 C-1.34 1.34 -0.68 0.68 0 0 Z " fill="#0E0E0E" transform="translate(190,136)"/>
<path d="M0 0 C0 3.71253164 -0.783548 5.04473066 -3 8 C-6.0625 9.875 -6.0625 9.875 -9 11 C-9.66 10.67 -10.32 10.34 -11 10 C-5.555 5.05 -5.555 5.05 0 0 Z " fill="#0E0E0E" transform="translate(407,132)"/>
<path d="M0 0 C1.77155654 0.11429397 3.54226229 0.24183037 5.3125 0.375 C6.79169922 0.47941406 6.79169922 0.47941406 8.30078125 0.5859375 C11 1 11 1 14 3 C8.65998179 4.33500455 5.16044765 3.512545 0 2 C0 1.34 0 0.68 0 0 Z " fill="#0F0F0F" transform="translate(215,146)"/>
<path d="M0 0 C0 0.99 0 1.98 0 3 C-5.34883721 8 -5.34883721 8 -8 8 C-8 8.66 -8 9.32 -8 10 C-7.34 10.33 -6.68 10.66 -6 11 C-6.99 11 -7.98 11 -9 11 C-9 8.875 -9 8.875 -8 6 C-5.50224217 3.74515308 -2.80198037 1.85734917 0 0 Z " fill="#ffffff" transform="translate(201,152)"/>
<path d="M0 0 C-1.43561686 3.18706942 -3.20266329 5.62169105 -5.5 8.25 C-6.1084375 8.95640625 -6.716875 9.6628125 -7.34375 10.390625 C-9 12 -9 12 -11 12 C-9.56438314 8.81293058 -7.79733671 6.37830895 -5.5 3.75 C-4.8915625 3.04359375 -4.283125 2.3371875 -3.65625 1.609375 C-2 0 -2 0 0 0 Z " fill="#0C0C0C" transform="translate(228,129)"/>
<path d="M0 0 C0.33 0.66 0.66 1.32 1 2 C-4.27913453 4.08386889 -9.39538469 4.57910004 -15 5 C-12.32449708 2.32449708 -10.05120106 2.16790611 -6.375 1.375 C-4.59222656 0.98441406 -4.59222656 0.98441406 -2.7734375 0.5859375 C-1.85820313 0.39257812 -0.94296875 0.19921875 0 0 Z " fill="#0E0E0E" transform="translate(583,72)"/>
<path d="M0 0 C-3.28491373 2.18994248 -4.83095639 2.35277339 -8.6875 2.625 C-10.17830078 2.73714844 -10.17830078 2.73714844 -11.69921875 2.8515625 C-12.83810547 2.92503906 -12.83810547 2.92503906 -14 3 C-14 2.34 -14 1.68 -14 1 C-12.41913952 0.63495397 -10.83516093 0.28339494 -9.25 -0.0625 C-8.36828125 -0.25972656 -7.4865625 -0.45695313 -6.578125 -0.66015625 C-4.01320972 -0.99825872 -2.42908361 -0.81158635 0 0 Z " fill="#111111" transform="translate(96,203)"/>
<path d="M0 0 C1.6510403 0.39553053 3.2958515 0.81713897 4.9375 1.25 C5.85402344 1.48203125 6.77054688 1.7140625 7.71484375 1.953125 C10 3 10 3 10.81640625 5.109375 C10.87699219 5.73328125 10.93757812 6.3571875 11 7 C10.01 7.66 9.02 8.32 8 9 C8 7.68 8 6.36 8 5 C5.36 4.01 2.72 3.02 0 2 C0 1.34 0 0.68 0 0 Z " fill="#0D0D0D" transform="translate(599,74)"/>
<path d="M0 0 C0.99 0.33 1.98 0.66 3 1 C2.39009109 4.55780196 1.4216319 7.6828589 0 11 C-0.33 11 -0.66 11 -1 11 C-1.08912219 7.16774573 -0.87867729 3.73437848 0 0 Z " fill="#0E0E0E" transform="translate(125,37)"/>
<path d="M0 0 C0.33 0.66 0.66 1.32 1 2 C1.66 2.33 2.32 2.66 3 3 C1.54182203 3.16802051 0.0834516 3.33437143 -1.375 3.5 C-2.59316406 3.63921875 -2.59316406 3.63921875 -3.8359375 3.78125 C-6 4 -6 4 -8 4 C-8 3.34 -8 2.68 -8 2 C-5.36 1.34 -2.72 0.68 0 0 Z " fill="#0F0F0F" transform="translate(506,126)"/>
<path d="M0 0 C-3.18762365 2.12508244 -5.26512223 2.5020163 -9 3 C-9 2.34 -9 1.68 -9 1 C-5.64919071 -1.10976881 -3.77897651 -1.0497157 0 0 Z " fill="#090909" transform="translate(453,108)"/>
<path d="M0 0 C2.86724686 0.57344937 3.8614515 0.8614515 6 3 C6.125 5.625 6.125 5.625 6 8 C3.87961365 5.38485683 1.86908256 2.80362384 0 0 Z " fill="#0C0C0C" transform="translate(244,19)"/>
<path d="M0 0 C-2 2 -2 2 -5.625 2.125 C-6.73875 2.08375 -7.8525 2.0425 -9 2 C-9 1.34 -9 0.68 -9 0 C-5.67465243 -1.10844919 -3.37817425 -0.84454356 0 0 Z " fill="#020202" transform="translate(92,205)"/>
</svg>
